<svg id="Calque_1" data-name="Calque 1" xmlns="http://www.w3.org/2000/svg" viewBox="0 0 108 23"><defs><style>.cls-1{fill:#ccc;}</style></defs><title>bidable</title><path class="cls-1" d="M8.88,21V17.32H2.05V15L7.88,5.59h4.41v9h1.85v2.7H12.29V21Zm0-6.38V11.21c0-.93,0-1.88.11-2.87H8.9c-.5,1-.9,1.89-1.42,2.87L5.41,14.57v0Z"/><path class="cls-1" d="M16.22,5.23a28.81,28.81,0,0,1,4.67-.33,8.8,8.8,0,0,1,4.72.9,3.46,3.46,0,0,1,1.92,3.13,3.61,3.61,0,0,1-2.63,3.41v.05a4,4,0,0,1,3.18,3.94,4.26,4.26,0,0,1-1.66,3.39c-1.16.92-3.11,1.45-6.28,1.45a27.78,27.78,0,0,1-3.92-.24Zm3.58,6.12H21c1.9,0,2.92-.78,2.92-2S23,7.53,21.35,7.53a9.44,9.44,0,0,0-1.55.1Zm0,7.09a10.92,10.92,0,0,0,1.4,0c1.64,0,3.09-.62,3.09-2.3S22.84,13.93,21,13.93H19.8Z"/><path class="cls-1" d="M34.17,5V21H30.54V5Z"/><path class="cls-1" d="M37.3,5.23a32.75,32.75,0,0,1,4.88-.33c3,0,5,.54,6.55,1.71a7.06,7.06,0,0,1,2.7,6,8.06,8.06,0,0,1-2.66,6.47c-1.68,1.4-4.24,2.07-7.37,2.07a30.91,30.91,0,0,1-4.1-.24Zm3.63,13a6.64,6.64,0,0,0,1.25.07c3.28,0,5.41-1.78,5.41-5.59,0-3.32-1.92-5.08-5-5.08a7.55,7.55,0,0,0-1.63.14Z"/><path class="cls-1" d="M57.14,16.9,56,21H52.26L57.14,5h4.74l5,16H63l-1.23-4.1Zm4.06-2.71-1-3.39c-.28-1-.57-2.13-.81-3.08h0c-.24,1-.48,2.16-.74,3.08l-1,3.39Z"/><path class="cls-1" d="M69,5.23a28.81,28.81,0,0,1,4.67-.33,8.8,8.8,0,0,1,4.72.9,3.48,3.48,0,0,1,1.92,3.13,3.61,3.61,0,0,1-2.63,3.41v.05a4,4,0,0,1,3.18,3.94,4.29,4.29,0,0,1-1.66,3.39c-1.17.92-3.11,1.45-6.29,1.45A27.61,27.61,0,0,1,69,20.93Zm3.58,6.12h1.19c1.89,0,2.91-.78,2.91-2s-.92-1.85-2.56-1.85a9.39,9.39,0,0,0-1.54.1Zm0,7.09a10.84,10.84,0,0,0,1.4,0c1.64,0,3.08-.62,3.08-2.3s-1.44-2.26-3.25-2.26H72.55Z"/><path class="cls-1" d="M83.29,5h3.63V18h6.35v3h-10Z"/><path class="cls-1" d="M104.91,14.24H99V18h6.57v3H95.4V5h9.87V8H99V11.3h5.88Z"/></svg>